<svg width="346" height="120" viewBox="0 0 346 120" fill="none" xmlns="http://www.w3.org/2000/svg">
<path fill-rule="evenodd" clip-rule="evenodd" d="M146.914 69.3509V80.02H139.802V118.204H127.916V80.02H122.113V69.3509H127.916V53.0656H139.802V69.3509H146.914ZM68.3918 68.2266C83.0859 68.2266 93.9415 79.364 93.9415 94.525C93.9748 96.0057 93.8161 97.4845 93.4693 98.9244H55.0997C56.5031 104.915 61.7438 108.564 68.7635 108.564C73.7237 108.564 76.7183 107.255 79.7129 103.698H92.7259C89.4495 113.805 79.1548 119.327 69.1404 119.327C53.9794 119.327 42.2799 108.19 42.2799 93.9642C42.2729 90.5507 42.9464 87.17 44.2608 84.0197C45.5753 80.8695 47.5044 78.0127 49.9355 75.6165C52.3665 73.2203 55.2508 71.3326 58.4198 70.0638C61.5887 68.7949 64.9787 68.1704 68.3918 68.2266ZM54.7307 88.7288H82.2433C80.746 82.3586 75.8771 78.9896 68.487 78.9949C61.4686 78.9949 56.6023 82.4578 54.7307 88.7288ZM38.5365 107.722V118.204H0.819092V107.722L22.6255 79.8322H3.34549V69.3496H36.8514V79.8322L15.045 107.722H38.5365ZM113.502 118.204V69.3496H101.616V118.204H113.502ZM200.542 69.3496H187.159L175.928 101.732L164.51 69.3496H151.313L171.248 118.204H180.7L200.542 69.3496ZM217.295 69.3496V118.204H205.409V69.3496H217.295ZM275.694 94.525C275.694 79.364 264.837 68.2266 250.144 68.2266C246.731 68.1704 243.341 68.7949 240.172 70.0638C237.003 71.3326 234.119 73.2203 231.688 75.6165C229.257 78.0127 227.328 80.8695 226.013 84.0197C224.699 87.17 224.026 90.5507 224.033 93.9642C224.033 108.19 235.732 119.327 250.893 119.327C260.907 119.327 271.202 113.805 274.479 103.698H261.466C258.471 107.255 255.476 108.564 250.516 108.564C243.496 108.564 238.256 104.915 236.852 98.9244H275.222C275.569 97.4845 275.727 96.0057 275.694 94.525ZM236.483 88.7288C238.355 82.4578 243.221 78.9949 250.24 78.9949C257.63 78.9896 262.499 82.3586 263.996 88.7288H236.483ZM332.878 69.3496H345.607L327.639 118.204H320.245L310.885 86.5701L301.245 118.204H293.945L276.256 69.3496H289.073L297.965 99.1108L306.298 69.3496H315.75L323.893 99.1108L332.878 69.3496Z" fill="#181A1C"/>
<path fill-rule="evenodd" clip-rule="evenodd" d="M159.732 11.6973C147.569 11.6745 135.879 16.411 127.163 24.8941C122.905 29.049 119.52 34.0121 117.206 39.4924C114.892 44.9727 113.695 50.8599 113.686 56.8088H101.797C101.808 49.326 103.311 41.9207 106.22 35.0264C109.129 28.1322 113.384 21.8878 118.737 16.6589C129.709 5.97713 144.417 0 159.729 0C175.042 0 189.75 5.97713 200.722 16.6589C206.076 21.8873 210.332 28.1316 213.242 35.0258C216.151 41.9201 217.656 49.3257 217.667 56.8088H205.776C205.767 50.8599 204.57 44.9727 202.256 39.4924C199.941 34.0121 196.556 29.049 192.299 24.8941C183.607 16.3747 171.903 11.6318 159.732 11.6973Z" fill="#5B48FB"/>
</svg>
